<svg width="549" height="545" viewBox="0 0 549 545" fill="none" xmlns="http://www.w3.org/2000/svg">
<g clip-path="url(#clip0_6_2)">
<path d="M326.221 0.231308H218.057L118.116 41.6818L41.6266 118.273L0.231003 218.346V326.654L41.6266 426.727L118.116 503.318L218.057 544.769H326.221L426.162 503.318L502.652 426.727L544.047 326.654V218.346L502.652 118.273L426.162 41.6818L326.221 0.231308Z" stroke="white" stroke-width="0.5" stroke-miterlimit="10"/>
<path d="M272.139 131.43L218.223 142.172L172.522 172.751L141.983 218.513L131.256 272.5L141.983 326.487L172.522 372.249L218.223 402.829L272.139 413.57L326.055 402.829L371.757 372.249L402.295 326.487L413.023 272.5L402.295 218.513L371.757 172.751L326.055 142.172L272.139 131.43Z" stroke="white" stroke-width="0.5" stroke-miterlimit="10"/>
<path d="M426.162 41.6818L141.983 218.513" stroke="white" stroke-width="0.5" stroke-miterlimit="10"/>
<path d="M502.652 118.273L172.522 172.751" stroke="white" stroke-width="0.5" stroke-miterlimit="10"/>
<path d="M544.047 218.346L218.223 142.172" stroke="white" stroke-width="0.5" stroke-miterlimit="10"/>
<path d="M544.047 326.654L272.139 131.43" stroke="white" stroke-width="0.5" stroke-miterlimit="10"/>
<path d="M502.652 426.727L326.055 142.172" stroke="white" stroke-width="0.5" stroke-miterlimit="10"/>
<path d="M426.162 503.318L371.757 172.751" stroke="white" stroke-width="0.5" stroke-miterlimit="10"/>
<path d="M326.221 544.769L402.295 218.513" stroke="white" stroke-width="0.5" stroke-miterlimit="10"/>
<path d="M218.057 544.769L413.023 272.5" stroke="white" stroke-width="0.5" stroke-miterlimit="10"/>
<path d="M118.116 503.318L402.295 326.487" stroke="white" stroke-width="0.5" stroke-miterlimit="10"/>
<path d="M41.6266 426.727L371.757 372.249" stroke="white" stroke-width="0.5" stroke-miterlimit="10"/>
<path d="M0.231003 326.654L326.055 402.829" stroke="white" stroke-width="0.5" stroke-miterlimit="10"/>
<path d="M0.231003 218.346L272.139 413.57" stroke="white" stroke-width="0.5" stroke-miterlimit="10"/>
<path d="M41.6266 118.273L218.223 402.828" stroke="white" stroke-width="0.5" stroke-miterlimit="10"/>
<path d="M118.116 41.6818L172.522 372.25" stroke="white" stroke-width="0.5" stroke-miterlimit="10"/>
<path d="M218.057 0.231308L141.983 326.487" stroke="white" stroke-width="0.5" stroke-miterlimit="10"/>
<path d="M326.221 0.231308L131.256 272.5" stroke="white" stroke-width="0.5" stroke-miterlimit="10"/>
<path d="M426.082 509.178C428.889 509.178 431.164 506.899 431.164 504.089C431.164 501.278 428.889 499 426.082 499C423.275 499 421 501.278 421 504.089C421 506.899 423.275 509.178 426.082 509.178Z" fill="white"/>
<path d="M543.918 222.981C546.725 222.981 549 220.703 549 217.893C549 215.082 546.725 212.804 543.918 212.804C541.111 212.804 538.836 215.082 538.836 217.893C538.836 220.703 541.111 222.981 543.918 222.981Z" fill="white"/>
<path d="M196.953 94.3739C199.504 94.3739 201.573 92.3027 201.573 89.7477C201.573 87.1928 199.504 85.1216 196.953 85.1216C194.401 85.1216 192.332 87.1928 192.332 89.7477C192.332 92.3027 194.401 94.3739 196.953 94.3739Z" fill="white"/>
<path d="M389.146 279.421C390.677 279.421 391.918 278.178 391.918 276.645C391.918 275.112 390.677 273.869 389.146 273.869C387.615 273.869 386.374 275.112 386.374 276.645C386.374 278.178 387.615 279.421 389.146 279.421Z" fill="white"/>
<path d="M41.719 434.86C46.3119 434.86 50.0351 431.132 50.0351 426.533C50.0351 421.934 46.3119 418.206 41.719 418.206C37.1262 418.206 33.4029 421.934 33.4029 426.533C33.4029 431.132 37.1262 434.86 41.719 434.86Z" fill="white"/>
</g>
<defs>
<clipPath id="clip0_6_2">
<rect width="549" height="545" fill="white"/>
</clipPath>
</defs>
</svg>
