<svg width="38" height="40" viewBox="0 0 38 40" fill="none" xmlns="http://www.w3.org/2000/svg">
<path d="M24.0861 3.51572L24.6808 0.95725L15.3635 0L16.8008 2.36702L10.0276 2.45404L12.1587 5.15175L5.35246 5.63907L4.8899 12.8097L2.32931 10.5646L2.24671 17.7004L0 16.1862L0.908597 26.0024L3.33703 25.3758L1.91631 26.3853L4.39431 27.5862L14.5541 32.9294L21.7898 32.7554L21.509 33.1383L21.922 33.5734L23.8548 35.6097L24.1852 35.9578L24.3669 36.1492L24.5817 36.3755L25.9528 37.8201C28.7117 40.7266 33.172 40.7266 35.9309 37.8201C38.6897 34.9135 38.6897 30.2143 35.9309 27.3077L34.5928 25.898L34.378 25.6717L34.1963 25.4803L33.8659 25.1322L31.9331 23.0958L31.5366 22.6781L31.1401 23.0088L31.3053 15.3334L26.2337 4.62961L25.0938 2.01893L24.1356 3.51572H24.0861ZM16.8338 0.95725L23.7392 1.67084L22.6323 6.40487L20.7821 3.51572L19.857 5.3606L20.2535 2.33221L17.6929 2.36702L16.8503 0.974655L16.8338 0.95725ZM22.4506 7.53617L24.7634 11.1563V14.0803L24.7799 14.8287L24.9451 14.3762L25.6224 12.5487L28.5134 17.2653L28.9264 20.9377L29.1247 22.7477L29.3229 24.5578C29.1742 24.6971 29.0255 24.8363 28.8603 24.9755L27.8857 20.7288L27.737 20.05V19.963L25.4242 16.6562L25.2425 16.3951V16.4473L19.1631 8.4238L19.7413 7.29251L20.1543 6.4919L20.8482 5.09953L22.3845 7.50136L22.4341 7.58838L22.4506 7.53617ZM11.6135 3.21984L17.2633 3.15022H18.1554L19.3779 3.11541L19.1631 4.78625L18.9979 6.00457L18.7667 7.83205L17.4451 6.09159L16.5034 8.28456L16.7347 4.82106L13.0838 5.08213L11.63 3.23725L11.6135 3.21984ZM7.33485 6.40487L12.7699 5.95235L13.695 5.88274L15.9087 5.69129L15.727 8.45861L15.6444 9.60731L15.4461 12.6531L16.3713 10.5123L16.7182 9.71174L17.6103 7.62319L18.618 8.94594L18.7832 9.15479L24.6312 16.8824V19.7368V20.9899V21.2858L24.6973 21.0769L24.9782 20.1893L25.6059 18.24L27.0101 20.2763L27.6544 23.6006L27.9848 25.254L28.0674 25.6891C27.5387 26.1938 27.0101 26.716 26.4815 27.2729L7.35137 6.40487H7.33485ZM5.61678 13.4711L6.0463 7.74502L25.8372 27.9169C25.3086 28.4738 24.813 29.0308 24.3174 29.5877L23.9209 29.5007L22.3515 29.1526L19.1962 28.4738L14.3889 24.7667L16.2887 23.8616L17.0486 23.4961L18.4032 22.8522L16.4208 22.9566L15.314 23.0088L12.4065 23.1655L8.59037 19.8412L8.37561 19.6497L7.16965 18.5881L9.16857 17.6308L9.92849 17.2653L11.9604 16.2907L9.06945 16.4995L7.97913 16.5865L5.35246 16.778L5.53418 14.4458L5.60026 13.4711H5.61678ZM21.5255 30.7016L19.8074 30.4928L16.3217 30.0577L12.7534 27.621L14.5045 26.9248L11.4483 26.716L7.1201 23.6702L7.0375 23.618L4.75774 21.9993L6.07934 21.2684L6.83926 20.8332L7.88001 20.2589L12.1587 24.0009L14.488 23.879L12.9021 24.6448L15.7931 26.89L18.8823 29.2744L19.6092 29.4659L23.607 30.4754C23.4748 30.632 23.3427 30.7886 23.2105 30.9627L21.5255 30.7538V30.7016ZM2.97359 18.2052L3.03967 12.2528L4.79078 13.7844L4.54298 17.6308L7.83045 17.3871L5.76546 18.3792L7.36789 19.789L5.66634 20.0326L4.50994 20.2067L2.92403 20.4329V19.145L2.95707 18.2052H2.97359ZM1.55287 25.0277L0.875557 17.7526L2.19715 18.6403L2.16411 21.338L5.03858 20.9203L3.28747 21.8949L6.0463 23.8442L1.53635 25.0103L1.55287 25.0277ZM14.7027 32.1462L6.17846 27.6732L8.40865 26.6812L4.82382 26.9422L3.43615 26.2635L6.4593 24.1401L11.0188 27.3599H11.0023L16.0904 30.8409L21.2942 31.4848L22.0376 31.9896L14.7358 32.1636L14.7027 32.1462ZM31.4209 23.6006L33.3538 25.6369C32.4782 26.3505 31.5201 27.2033 30.4793 28.1954C30.4463 28.2302 30.4132 28.265 30.3802 28.2824C30.1819 28.4738 29.9672 28.6827 29.7524 28.8915C29.4551 29.1874 29.1577 29.4833 28.8603 29.7966C28.8603 29.7966 28.8438 29.814 28.8273 29.8314C28.7282 29.9358 28.6456 30.0228 28.5465 30.1273C28.5134 30.1621 28.4804 30.1969 28.4308 30.2491C28.3647 30.3187 28.3152 30.3709 28.2656 30.4231C28.2656 30.4231 28.2491 30.4406 28.2326 30.458C27.9352 30.7712 27.6544 31.0845 27.3735 31.3978C27.1753 31.6241 26.9771 31.8329 26.7953 32.0418C26.7623 32.0766 26.7293 32.1114 26.6962 32.1462C25.7546 33.2253 24.9451 34.2347 24.2678 35.1572L22.335 33.1209C22.4176 32.999 22.5167 32.8946 22.5993 32.7728C22.814 32.4943 23.0453 32.1984 23.2766 31.9025C23.3096 31.8503 23.3592 31.7981 23.3922 31.7633C23.5905 31.5196 23.7887 31.276 23.987 31.0323C24.053 30.9627 24.1191 30.8757 24.1852 30.806C24.2348 30.7538 24.2843 30.7016 24.3339 30.6494C24.4495 30.5102 24.5817 30.3709 24.6973 30.2317C24.813 30.0925 24.9451 29.9532 25.0773 29.814C25.4738 29.3789 25.8868 28.9264 26.3163 28.4564C26.3823 28.3868 26.4484 28.3172 26.5145 28.2476C26.5475 28.2128 26.5806 28.178 26.6301 28.1257C26.7293 28.0213 26.8449 27.8995 26.944 27.7951C27.3901 27.3425 27.8196 26.9074 28.2326 26.5071C28.3647 26.3679 28.5134 26.2461 28.6456 26.1068C28.7777 25.985 28.9099 25.8458 29.0421 25.7239C29.0916 25.6717 29.1577 25.6195 29.2073 25.5673C29.2733 25.4977 29.3394 25.4454 29.422 25.3758C29.6533 25.167 29.8846 24.9581 30.1159 24.7493C30.1654 24.6971 30.215 24.6622 30.2645 24.61C30.5454 24.3664 30.8097 24.1401 31.074 23.9138C31.1897 23.8094 31.3218 23.705 31.4375 23.618L31.4209 23.6006ZM25.5564 5.09953L25.226 8.4064L26.2502 6.5267L30.4958 15.5075L30.3306 23.2003L29.8515 22.4171L29.2403 16.9346L25.3746 10.6342V10.669L22.8966 6.80518L24.9121 3.63755L25.5564 5.09953Z" fill="white"/>
</svg>
