<svg width="46" height="33" viewBox="0 0 46 33" fill="none" xmlns="http://www.w3.org/2000/svg">
<path d="M20.725 32.142C16.8499 32.142 13.5918 30.6272 10.912 27.5975C8.25147 24.5679 6.92125 20.8357 6.92125 16.423C6.92125 15.94 6.92125 15.435 6.97909 14.9081C7.01765 14.3812 7.07548 13.9202 7.15259 13.525C6.9598 13.6129 6.72842 13.6787 6.45852 13.7226C6.18861 13.7665 5.95729 13.7885 5.7645 13.7885C4.08721 13.7885 2.69913 13.1738 1.6195 11.9444C0.539867 10.7149 0 9.15621 0 7.22426C0 5.31427 0.539867 3.73359 1.6195 2.50417C2.69913 1.27474 4.06793 0.660034 5.7645 0.660034C6.9598 0.660034 8.0394 1.05521 9.04191 1.8675C10.0444 2.6798 10.7385 3.68968 11.1626 4.9191C12.3579 3.68968 13.7846 2.6798 15.4426 1.8675C17.1006 1.05521 18.8743 0.660034 20.7636 0.660034H46V8.51955H34.4904V16.3791C34.4904 20.7918 33.1601 24.502 30.4996 27.5536C27.8391 30.5833 24.5616 32.0981 20.6865 32.0981L20.725 32.142ZM5.78373 9.88069C6.47778 9.88069 7.03691 9.6392 7.44177 9.15621C7.84663 8.67322 8.07795 8.03656 8.07795 7.26817C8.07795 6.49978 7.86591 5.84117 7.44177 5.38013C7.01763 4.9191 6.4585 4.65565 5.78373 4.65565C5.10897 4.65565 4.53062 4.89715 4.12576 5.38013C3.70162 5.86312 3.48957 6.49978 3.48957 7.26817C3.48957 8.03656 3.70162 8.69518 4.12576 9.15621C4.5499 9.6392 5.10897 9.88069 5.78373 9.88069ZM20.725 25.5997C23.0193 25.5997 24.9472 24.7216 26.4702 22.9872C28.0126 21.2309 28.7645 19.0574 28.7645 16.4449C28.7645 13.8324 27.9933 11.637 26.4702 9.90265C24.9472 8.16828 23.0193 7.29012 20.725 7.29012C18.4308 7.29012 16.503 8.16828 14.9799 9.90265C13.4376 11.659 12.6857 13.8324 12.6857 16.4449C12.6857 19.0574 13.4569 21.2528 14.9799 22.9872C16.5222 24.7435 18.4308 25.5997 20.725 25.5997ZM20.725 21.67C21.9975 21.67 23.0771 21.165 23.9832 20.1332C24.8893 19.1013 25.3328 17.8719 25.3328 16.423C25.3328 14.974 24.8893 13.7446 23.9832 12.7127C23.0771 11.6809 21.9975 11.176 20.725 11.176C19.4526 11.176 18.3731 11.6809 17.4669 12.7127C16.5608 13.7446 16.1174 14.974 16.1174 16.423C16.1174 17.8719 16.5608 19.1013 17.4669 20.1332C18.3731 21.165 19.4526 21.67 20.725 21.67Z" fill="white"/>
</svg>
