<svg width="100" height="85" viewBox="0 0 100 85" fill="none" xmlns="http://www.w3.org/2000/svg">
<g clip-path="url(#clip0_6_98)">
<path d="M100 38.0562H92.2973L93.7322 33.1977H89.2978C88.8228 31.4465 88.23 29.7248 87.5174 28.0385C85.4661 23.182 82.5315 18.8227 78.7939 15.0806C76.3441 12.6278 73.6293 10.5228 70.6829 8.78341L71.2326 7.92453L53.7542 0L54.5845 3.39623C53.0711 3.2272 51.5419 3.13876 50.001 3.13876C49.5122 3.13876 49.0254 3.15055 48.5386 3.16824L41.8703 0.986635L42.9244 3.75197C40.8319 4.1195 38.7747 4.65212 36.7627 5.34591L30.7834 3.75L28.4593 9.30621C26.6258 10.452 24.8847 11.7433 23.2456 13.1761L21.8244 10.8491L19.7947 16.5684C18.2557 18.2704 16.8718 20.0865 15.6489 22.0067L13.784 19.6678L10.5922 33.1958H6.23049L7.66543 38.0542H0L4.46578 46.9123L0.952044 65.6329L13.576 62.1561C15.5291 66.0672 18.0869 69.6187 21.2041 72.7398C24.9416 76.4819 29.2955 79.4202 34.146 81.4741C39.1712 83.6026 44.5046 84.6816 49.999 84.6816C52.6569 84.6816 55.2755 84.4261 57.8411 83.9249C61.5296 85.4265 65.8147 85.4108 69.6622 83.5181C73.5744 81.5939 76.2264 78.1211 77.2569 74.2001C77.7791 73.7284 78.2934 73.241 78.7939 72.7398C81.9112 69.6187 84.4689 66.0652 86.4221 62.1561L99.046 65.6329L95.5323 46.9143L99.998 38.0562H100ZM11.8858 58.2822L9.50082 57.1855C10.0073 57.0499 10.6197 56.8927 11.3323 56.7197C11.505 57.2425 11.6915 57.7634 11.8858 58.2822ZM50.7803 51.5468C23.1828 51.5468 8.43099 55.8097 8.43099 55.8097L10.8749 43.1545L8.3721 34.6836H91.5906L89.0878 43.1545L91.5317 55.8097C91.5317 55.8097 78.3758 51.5468 50.7783 51.5468H50.7803ZM22.1934 14.432L24.6373 18.4336L21.738 25.3636L28.2767 27.1069L23.6441 27.5491L25.874 31.1989L16.8698 29.4281L22.1934 14.432ZM23.8718 24.3278L30.8678 8.13876L31.5824 9.53616L43.6802 33.1997H28.9127L26.2588 28.8581L37.0061 27.8302L23.8737 24.3298L23.8718 24.3278ZM61.2508 12.9344L65.0021 26.7748L62.8565 33.1997H61.345L55.8958 17.9776L61.2508 12.9344ZM70.7497 19.2492L72.6263 33.1977H68.2449L66.5077 26.252L66.4763 26.2952L64.105 17.5452L69.9939 13.0385L70.3158 16.1517L67.5893 22.0401L70.7497 19.2492ZM63.0293 33.1977L65.8167 29.8683L66.649 33.1977H63.0293ZM74.1888 33.1977L73.3565 27.0086C74.6285 28.7657 75.6983 30.6623 76.5503 32.6789C76.6229 32.8518 76.6916 33.0248 76.7623 33.1977H74.1888ZM26.5866 32.3644L27.095 33.1977H21.3925L26.5866 32.3644ZM48.8271 70.8648L46.3557 65.8274C46.3557 65.8274 49.7674 63.2842 58.1257 59.1785C66.4841 55.0727 69.9488 54.3062 69.9488 54.3062L72.4202 59.3436C72.4202 59.3436 67.5029 60.8726 60.4224 64.4399C52.8159 68.2724 48.8271 70.8648 48.8271 70.8648ZM46.4696 60.6663L43.2739 59.1431L36.7823 56.0476L34.6269 53.3019C35.8538 53.2115 37.118 53.1289 38.4233 53.0582C38.9514 53.0287 39.4853 53.0031 40.0251 52.9776L42.2924 56.2244L43.5801 57.0401L50.7822 61.6018C50.423 61.8042 50.0677 62.0086 49.7164 62.2131L46.4735 60.6663H46.4696ZM51.8717 60.0629L49.0391 58.3962L43.3642 55.057L41.8566 52.899C43.0795 52.8538 44.3319 52.8164 45.6157 52.7909C46.2085 52.7791 46.8072 52.7693 47.4138 52.7614C48.2579 52.7516 49.1118 52.7457 49.9794 52.7457C51.2416 52.7457 52.4783 52.7555 53.6875 52.7771L56.6182 58.5102C55.2716 59.1785 53.9603 59.8565 52.6883 60.5425L51.8697 60.0609L51.8717 60.0629ZM56.0038 52.8302C57.9883 52.8852 59.8983 52.9658 61.7298 53.068C62.036 53.0857 62.3383 53.1034 62.6386 53.1211L62.4168 54.8722L62.2892 55.8726C60.974 56.4446 59.6412 57.0499 58.2926 57.6946L56.0018 52.8282L56.0038 52.8302ZM64.4583 53.241C64.8705 53.2704 65.2808 53.2999 65.6852 53.3294L65.4163 54.5755C65.0433 54.7229 64.6684 54.8762 64.2934 55.0295L64.4603 53.241H64.4583ZM32.77 53.4473L35.7871 57.2897L45.4822 61.9123L46.6011 63.3156L32.3263 58.7873L27.5622 53.9623C29.2032 53.7756 30.9405 53.6026 32.7719 53.4493L32.77 53.4473ZM25.611 54.1922L31.4921 60.1474L45.7138 64.658C45.6864 64.6757 45.6589 64.6934 45.6314 64.7111L44.6421 65.3538L45.1622 66.4131L47.6336 71.4505L48.25 72.7083C44.9777 72.5138 41.7997 71.7728 38.7786 70.4933C35.3474 69.0409 32.2655 66.9595 29.6194 64.3121C26.9733 61.6627 24.8965 58.579 23.4458 55.1415C23.3575 54.9332 23.2731 54.7248 23.1906 54.5145C23.9699 54.4045 24.7767 54.2964 25.611 54.1922ZM74.0926 59.7406L74.0318 59.6187L73.6097 58.7579L71.1913 53.8325C73.1955 54.0468 75.0682 54.2807 76.7996 54.5244C76.7171 54.7307 76.6347 54.9371 76.5483 55.1415C75.8671 56.7551 75.0447 58.2921 74.0926 59.7406ZM88.6618 56.7296C89.3705 56.9006 89.977 57.0558 90.4815 57.1914L88.1122 58.2803C88.3065 57.7673 88.4891 57.2504 88.6618 56.7296ZM73.278 12.6297C73.7785 13.0031 74.2693 13.3903 74.7522 13.7893C74.9936 13.9878 75.2331 14.1922 75.4706 14.3966C75.8259 14.7052 76.1773 15.0197 76.5228 15.342C76.8683 15.6643 77.2079 15.9925 77.5435 16.3286C77.8792 16.6647 78.207 17.0047 78.5289 17.3506C78.8509 17.6965 79.1649 18.0483 79.4731 18.4041C79.6792 18.6419 79.8814 18.8817 80.0797 19.1234C80.4782 19.6069 80.8649 20.0983 81.2379 20.5994C83.1066 23.1034 84.6632 25.8215 85.8901 28.7244C86.5084 30.1887 87.0326 31.6804 87.4644 33.1958H78.6546C78.5034 32.7909 78.3444 32.388 78.1756 31.987C76.8761 28.9131 75.1035 26.1046 72.8991 23.6144L71.8332 15.6958L71.8254 15.7056L71.368 11.2932C72.0177 11.7197 72.6537 12.1639 73.278 12.6297ZM70.469 10.7193L68.4608 12.2563L69.7289 10.2732C69.9782 10.4186 70.2236 10.568 70.469 10.7193ZM56.0155 2.72602L68.9653 8.5967L63.8518 16.5979L62.0733 10.0334L59.119 12.8164L61.773 7.49607L56.7831 5.86478L56.0175 2.72799L56.0155 2.72602ZM44.4732 3.46895L44.5675 3.50039L59.5842 8.41195L55.4443 16.7079L53.978 12.614L50.7783 16.0358L53.395 9.78774L46.1437 7.85181L44.4889 3.51219L44.4732 3.47091V3.46895ZM43.5663 5.43829L44.2985 7.35849L39.9937 6.20873C41.1715 5.89623 42.363 5.63876 43.5663 5.43829ZM46.764 33.1977L34.197 6.49961L51.273 10.8451L46.0181 23.3943L53.3773 15.5248L59.704 33.1977H46.766H46.764ZM24.5274 14.3986C24.7649 14.1922 25.0044 13.9898 25.2459 13.7913C25.7288 13.3923 26.2195 13.0051 26.7201 12.6317C26.883 12.5098 27.0498 12.3899 27.2147 12.27L25.3754 16.6667L24.178 14.7072C24.2938 14.603 24.4096 14.4988 24.5274 14.3966V14.3986ZM17.6766 22.1285C17.7708 21.989 17.869 21.8494 17.9652 21.7099L17.178 23.9289L16.8149 23.4729C17.0936 23.0189 17.3802 22.5708 17.6786 22.1285H17.6766ZM14.5555 23.125L16.5675 25.6486L14.8087 30.6014L20.6368 31.7472L16.6264 32.3899L17.2408 33.1958H12.1764L14.5535 23.125H14.5555ZM3.04654 63.6576L6.18142 46.7296L2.55776 39.5421L8.07373 39.434L8.10514 39.5421L9.18478 43.1958L6.18142 58.4198L12.1057 60.4501L3.04654 63.6596V63.6576ZM50.001 82.9127C44.7441 82.9127 39.6423 81.8809 34.837 79.8447C30.1985 77.8793 26.033 75.0688 22.4565 71.4878C19.5572 68.5849 17.1623 65.2928 15.3152 61.6765C15.2896 61.6254 15.2641 61.5723 15.2366 61.5212C15.0502 61.1537 14.8715 60.7803 14.6968 60.4068C14.4946 59.9725 14.2983 59.5362 14.1119 59.0939C14.0314 58.9033 13.9548 58.7127 13.8783 58.522C13.5838 57.7948 13.311 57.0617 13.0617 56.3208C13.3247 56.2618 13.5956 56.2028 13.8783 56.1439C14.1433 56.0869 14.42 56.0299 14.7007 55.9709C14.9677 55.9159 15.2425 55.8608 15.5232 55.8038C17.2192 55.4678 19.1822 55.116 21.4043 54.7779C21.5378 55.1297 21.6772 55.4815 21.8244 55.8314C23.3653 59.4792 25.5698 62.7535 28.3768 65.5621C31.1839 68.3726 34.4542 70.5798 38.0955 72.1226C41.6073 73.6105 45.3193 74.4143 49.1432 74.5185L50.319 76.9143C51.483 79.2846 53.2124 81.191 55.2657 82.559C53.5324 82.7928 51.7755 82.9127 50.001 82.9127ZM61.2547 66.2205C71.5231 61.1773 73.3604 61.2559 73.3604 61.2559L74.1005 62.7653L75.0682 64.7347C76.3363 67.3192 76.6759 70.116 76.2224 72.7516C76.036 73.8286 75.7199 74.8801 75.2763 75.8766C74.071 78.5888 71.9471 80.9119 69.0772 82.3231C66.2682 83.7048 63.2079 83.9878 60.3773 83.3412C59.3114 83.0975 58.2769 82.7241 57.3033 82.2248C54.8731 80.9807 52.808 78.9682 51.5105 76.3267L50.6252 74.5224L49.7674 72.7771C49.7674 72.7771 49.787 72.7653 49.7949 72.7594C49.7949 72.7594 50.9864 71.2638 61.2547 66.2205ZM77.7143 71.3168C77.8478 68.919 77.3924 66.4544 76.2597 64.1509L74.9917 61.5684C76.2539 59.7818 77.3198 57.8656 78.1776 55.8314C78.3228 55.4855 78.4602 55.1376 78.5937 54.7877C80.8158 55.1278 82.7808 55.4796 84.4787 55.8156C84.7614 55.8707 85.0342 55.9277 85.3012 55.9827C85.5839 56.0417 85.8587 56.0987 86.1237 56.1557C86.4025 56.2146 86.6753 56.2736 86.9364 56.3325C86.689 57.0696 86.4162 57.7987 86.1237 58.522C86.0471 58.7127 85.9706 58.9053 85.8901 59.0939C85.7036 59.5362 85.5054 59.9725 85.3051 60.4068C85.1304 60.7822 84.9518 61.1537 84.7653 61.5212C84.7398 61.5723 84.7143 61.6254 84.6868 61.6765C82.875 65.2241 80.5351 68.4552 77.7123 71.3168H77.7143ZM96.9554 63.6576L87.8963 60.4481L93.8205 58.4178L90.7819 43.1938L91.8615 39.5401H97.4442L93.8205 46.7276L96.9554 63.6557V63.6576Z" fill="white"/>
<path d="M15.6175 44.7072V46.9693H17.2703V49.487L12.991 50.3597L15.1385 39.0487H19.3569V36.7866H13.2697L10.4823 53.3314C12.3059 52.9127 15.3387 52.2897 19.5316 51.6706V44.7072H15.6194H15.6175Z" fill="white"/>
<path d="M27.0243 44.4595V36.706H20.0754V51.592C20.7958 51.4878 21.5496 51.3856 22.3348 51.2834V42.7594L24.5902 51.0063C25.291 50.9237 26.0154 50.8451 26.7613 50.7665L25.291 44.4615H27.0263L27.0243 44.4595ZM24.7649 42.1973H22.3328V38.9662H24.7649V42.1973Z" fill="white"/>
<path d="M80.9611 45.0256V36.706H74.0121V50.7272C74.7914 50.8098 75.5433 50.8962 76.2715 50.9847V43.4513L79.1885 51.366C80.1111 51.4957 80.9827 51.6274 81.8012 51.759L79.3083 45.0256H80.965H80.9611ZM78.7017 42.7634H76.2696V38.9682H78.7017V42.7634Z" fill="white"/>
<path d="M29.9845 47.6179V44.4654H34.0675V42.2032H29.9845V38.9662H34.0675V36.704H27.7251V50.6643C29.6743 50.4697 31.7688 50.2909 34.0047 50.1376V47.5236L29.9845 47.616V47.6179Z" fill="white"/>
<path d="M55.3324 45.1297V46.9949L52.596 46.987V38.9682H55.3324V40.6309H57.5918V36.706H50.3386V49.5814C50.4858 49.5814 50.6331 49.5814 50.7823 49.5814C53.1594 49.5814 55.4286 49.6128 57.5918 49.6718V45.1317H55.3324V45.1297Z" fill="white"/>
<path d="M58.1945 36.706V49.6855C60.766 49.7602 63.1804 49.8723 65.4477 50.0118V36.704H58.1945V36.706ZM60.4538 47.1069V38.9662H63.1902V47.4233L60.4538 47.1069Z" fill="white"/>
<path d="M71.1207 36.706V48.4827L68.3843 48.011V36.706H66.1249V50.055C68.7494 50.226 71.1678 50.4324 73.3781 50.6604V36.706H71.1187H71.1207Z" fill="white"/>
<path d="M37.0925 47.2052V44.4674H40.9576V42.2052H37.0925V38.9682H40.9576V36.706H34.8331V50.0826C36.7902 49.9548 38.8513 49.8467 41.0184 49.7622V46.9969L37.0925 47.2032V47.2052Z" fill="white"/>
<path d="M46.6521 36.5979V43.3412L44.7638 36.706H41.7682V49.7366C42.5103 49.7111 43.2621 49.6875 44.0276 49.6679V42.3664L45.6491 49.6285C46.715 49.6069 47.8024 49.5932 48.9115 49.5853V36.5959H46.6521V36.5979Z" fill="white"/>
<path d="M87.3565 38.9682H89.133L89.6885 36.706H81.6128V38.9682H85.099V52.3349C85.9333 52.4941 86.6871 52.6474 87.3584 52.7928V38.9682H87.3565Z" fill="white"/>
</g>
<defs>
<clipPath id="clip0_6_98">
<rect width="100" height="85" fill="white"/>
</clipPath>
</defs>
</svg>
