<svg width="56" height="42" viewBox="0 0 56 42" fill="none" xmlns="http://www.w3.org/2000/svg">
<path d="M27.6676 20.4013C28.6843 18.9919 29.4274 17.5606 29.9162 16.0631C30.405 14.5657 30.6397 12.848 30.6397 10.8661C30.6397 8.8842 30.405 7.16655 29.9162 5.66911C29.4274 4.17166 28.6843 2.74028 27.6676 1.33093C30.6201 0.582205 33.2207 1.08869 35.4497 2.85039C37.6788 4.61209 38.7933 7.27665 38.7933 10.8661C38.7933 14.4556 37.6788 17.1201 35.4497 18.8818C33.2207 20.6435 30.6201 21.128 27.6676 20.4013ZM40.2598 41.8059V35.64C40.2598 33.4158 39.7514 31.3238 38.7346 29.408C37.7179 27.4921 35.9776 25.8626 33.4944 24.5413C40.2207 25.5102 44.8157 26.8976 47.2794 28.7473C49.743 30.5971 50.9748 32.8873 50.9748 35.64V41.8059H40.2402H40.2598ZM46.6732 22.8236V16.2613H40.8464V12.3195H46.6732V5.75719H50.1732V12.3195H56V16.2613H50.1732V22.8236H46.6732ZM18.3799 20.7316C15.8184 20.7316 13.7067 19.8067 12.0838 17.979C10.4414 16.1292 9.63971 13.7729 9.63971 10.8881C9.63971 8.00335 10.4609 5.62506 12.0838 3.7973C13.7263 1.94752 15.8184 1.04465 18.3799 1.04465C20.9413 1.04465 23.0531 1.96954 24.676 3.7973C26.3184 5.64708 27.1201 8.00335 27.1201 10.8881C27.1201 13.7729 26.2989 16.1512 24.676 17.979C23.0335 19.8287 20.9413 20.7316 18.3799 20.7316ZM0 41.8059V35.64C0 34.0985 0.351991 32.7112 1.07545 31.478C1.79892 30.2228 2.75698 29.2979 3.96927 28.6813C6.76536 27.2719 9.26818 26.281 11.4581 25.6644C13.6481 25.0478 15.9553 24.7395 18.3604 24.7395C20.7654 24.7395 23.0726 25.0478 25.243 25.6644C27.4134 26.281 29.9162 27.2939 32.7123 28.6813C33.9246 29.2979 34.8827 30.2228 35.6257 31.478C36.3687 32.7332 36.7402 34.1205 36.7402 35.64V41.8059H0ZM18.3799 16.7898C19.905 16.7898 21.1564 16.2393 22.1341 15.1162C23.1313 13.9931 23.6201 12.5838 23.6201 10.8881C23.6201 9.1925 23.1313 7.76112 22.1341 6.66006C21.1369 5.53698 19.8855 4.98645 18.3799 4.98645C16.8743 4.98645 15.6034 5.53698 14.6257 6.66006C13.6285 7.78314 13.1397 9.1925 13.1397 10.8881C13.1397 12.5838 13.6285 14.0151 14.6257 15.1162C15.6229 16.2393 16.8743 16.7898 18.3799 16.7898ZM3.50002 37.8641H33.2402V35.64C33.2402 34.9353 33.0838 34.2747 32.771 33.6801C32.4581 33.0855 31.9693 32.579 31.3045 32.2267C28.6257 30.8173 26.338 29.8924 24.4805 29.408C22.6229 28.9235 20.5699 28.6813 18.3604 28.6813C16.1509 28.6813 14.1173 28.9235 12.2598 29.408C10.4218 29.8924 8.11456 30.8393 5.35758 32.2267C4.77099 32.535 4.32124 32.9974 3.98884 33.636C3.65644 34.2747 3.50002 34.9353 3.50002 35.64V37.8641Z" fill="white"/>
</svg>
