<svg width="46" height="53" viewBox="0 0 46 53" fill="none" xmlns="http://www.w3.org/2000/svg">
<path d="M18.2975 52.6359H3.52935C2.58293 52.6359 1.77453 52.2309 1.06471 51.4209C0.354895 50.6109 0 49.6659 0 48.6084V9.5485C0 8.4685 0.29577 7.546 0.907 6.73601C1.51823 5.92601 2.03086 5.52101 2.46464 5.52101H14.3343C14.6104 3.94601 15.2808 2.66351 16.3652 1.67351C17.4496 0.661015 18.6918 0.166016 20.0917 0.166016C21.5114 0.166016 22.7535 0.661015 23.8183 1.67351C24.9027 2.68601 25.5731 3.96851 25.8491 5.52101H37.7188C38.6652 5.52101 39.4736 5.92601 40.1835 6.73601C40.8933 7.546 41.2482 8.491 41.2482 9.5485V23.161H37.7188V9.5485H31.4882V18.2785H9.72052V9.5485H3.48994V48.6084H18.258V52.6359H18.2975ZM29.4179 50.9484L20.0128 40.216L22.5366 37.336L29.4179 45.1884L43.4762 29.146L46 32.026L29.4179 50.9484ZM21.1762 9.2785C21.8466 9.2785 22.3986 9.031 22.8521 8.5135C23.3056 7.996 23.5225 7.36601 23.5225 6.60101C23.5225 5.83601 23.3056 5.20601 22.8521 4.68851C22.3986 4.17101 21.8466 3.92351 21.1762 3.92351C20.5058 3.92351 19.9537 4.17101 19.5002 4.68851C19.0467 5.20601 18.8298 5.83601 18.8298 6.60101C18.8298 7.36601 19.0467 7.996 19.5002 8.5135C19.9537 9.031 20.5058 9.2785 21.1762 9.2785Z" fill="white"/>
</svg>
