<svg width="174" height="56" viewBox="0 0 174 56" fill="none" xmlns="http://www.w3.org/2000/svg">
<g clip-path="url(#clip0_6_172)">
<path d="M11.6581 17.7642V22.7185H15.2709V28.2324L5.91699 30.1436V5.36755H19.8277V0.417511H0.429077V36.6518C4.41522 35.735 11.0445 34.3705 20.2096 33.0146V17.7642H11.6581Z" fill="white"/>
<path d="M36.5961 17.2175V0.236755H21.4067V32.8381C22.9815 32.61 24.6291 32.3862 26.3454 32.1624V13.4943L31.2755 31.5554C32.8074 31.3746 34.3907 31.2025 36.0212 31.0303L32.8074 17.2218H36.6004L36.5961 17.2175ZM31.6574 12.2632H26.3411V5.1911H31.6574V12.2675V12.2632Z" fill="white"/>
<path d="M154.494 18.4572V0.236755H139.305V30.9485C141.008 31.1293 142.652 31.3187 144.243 31.5124V15.0137L150.619 32.3474C152.636 32.6315 154.541 32.9199 156.331 33.2083L150.881 18.4615H154.503L154.494 18.4572ZM149.555 13.5029H144.239V5.1911H149.555V13.5029Z" fill="white"/>
<path d="M43.0666 24.139V17.2348H51.9915V12.2804H43.0666V5.1911H51.9915V0.236755H38.1279V30.8108C42.3887 30.3846 46.967 29.9929 51.8542 29.6572V23.9324L43.0666 24.1347V24.139Z" fill="white"/>
<path d="M98.4736 18.6853V22.7702L92.4922 22.753V5.1911H98.4736V8.8326H103.412V0.236755H87.5578V28.4348C87.8796 28.4348 88.2014 28.4348 88.5275 28.4348C93.7237 28.4348 98.6838 28.5036 103.412 28.6328V18.6896H98.4736V18.6853Z" fill="white"/>
<path d="M104.725 0.236755V28.6672C110.346 28.8308 115.624 29.0761 120.58 29.3817V0.236755H104.725ZM109.664 23.0155V5.1911H115.645V23.7129L109.664 23.0198V23.0155Z" fill="white"/>
<path d="M132.98 0.236755V26.0286L126.999 24.9956V0.236755H122.06V29.4764C127.797 29.8509 133.083 30.3029 137.914 30.8022V0.236755H132.976H132.98Z" fill="white"/>
<path d="M58.5993 23.2308V17.2348H67.0478V12.2804H58.5993V5.1911H67.0478V0.236755H53.6606V29.5367C57.9385 29.2569 62.4438 29.0202 67.1809 28.8351V22.7788L58.5993 23.2308Z" fill="white"/>
<path d="M79.4997 0V14.7683L75.372 0.236741H68.8242V28.7748C70.4461 28.7188 72.0895 28.6672 73.7629 28.6241V12.6377L77.3071 28.5424C79.637 28.495 82.0141 28.4649 84.4384 28.4477V0H79.4997Z" fill="white"/>
<path d="M168.473 5.1911H173.571V0.236755H155.919V5.1911H163.539V34.4695C165.363 34.8182 167.01 35.1539 168.478 35.4724V5.1911H168.473Z" fill="white"/>
<path d="M30.4303 45.0411C31.194 44.5073 31.5759 43.6507 31.5759 42.4843C31.5759 40.0996 30.2629 38.9073 27.6413 38.9073H24.4446V52.0658H28.4651C29.718 52.0658 30.7306 51.7516 31.503 51.1231C32.2753 50.4947 32.6572 49.5693 32.6572 48.3382C32.6572 47.4989 32.4598 46.7714 32.0608 46.1473C31.666 45.5275 31.1211 45.1573 30.4303 45.0411ZM26.6716 40.6205H27.6885C28.9113 40.6205 29.5249 41.3006 29.5249 42.6564C29.5249 43.9262 28.9071 44.5633 27.667 44.5633H26.6716V40.6205ZM27.903 50.2881H26.6716V46.1688H27.7743C29.5593 46.1688 30.456 46.8188 30.456 48.1187C30.456 49.565 29.6065 50.2838 27.9073 50.2838L27.903 50.2881Z" fill="white"/>
<path d="M40.0245 44.305C39.4066 43.5819 38.4884 43.2203 37.2784 43.2203C36.1413 43.2203 35.2059 43.6594 34.4808 44.5331C33.7514 45.4069 33.3909 46.4658 33.3909 47.7098C33.3909 48.9537 33.7471 50.0384 34.4593 50.9596C35.1716 51.885 36.1285 52.3499 37.3213 52.3499C38.5141 52.3499 39.4195 51.9969 40.0202 51.2867V52.0658H42.0712V43.5044H40.0202V44.305H40.0245ZM39.6126 49.7888C39.1792 50.2795 38.6128 50.5248 37.9048 50.5248C37.1969 50.5248 36.6219 50.2709 36.1757 49.763C35.7294 49.2594 35.5063 48.5922 35.5063 47.77C35.5063 46.9479 35.7251 46.285 36.1671 45.7857C36.6047 45.2864 37.1754 45.0368 37.8748 45.0368C38.5742 45.0368 39.1449 45.2907 39.5911 45.8072C40.0374 46.3195 40.2605 46.9737 40.2605 47.77C40.2605 48.6223 40.0459 49.2938 39.6126 49.7845V49.7888Z" fill="white"/>
<path d="M49.7903 44.2835C49.2153 43.5733 48.3229 43.2203 47.1129 43.2203C45.9758 43.2203 45.0404 43.6593 44.3153 44.5331C43.5858 45.4069 43.2254 46.4658 43.2254 47.7098C43.2254 48.9537 43.5815 50.0384 44.2938 50.9596C45.0061 51.885 45.9672 52.3499 47.1772 52.3499C48.3872 52.3499 49.2754 51.9883 49.8332 51.2652V52.0658H51.9314V37.2587H49.8332L49.7903 44.2835ZM49.4213 49.7543C48.9879 50.2666 48.4258 50.5248 47.735 50.5248C47.0442 50.5248 46.4735 50.2623 46.0187 49.7328C45.5639 49.2034 45.3365 48.5534 45.3365 47.7829C45.3365 47.0125 45.5725 46.3582 46.0402 45.8331C46.5079 45.3036 47.0657 45.0411 47.7136 45.0411C48.3615 45.0411 48.915 45.3079 49.3784 45.8417C49.8375 46.3797 50.0692 47.0211 50.0692 47.77C50.0692 48.5793 49.8547 49.2421 49.4213 49.7543Z" fill="white"/>
<path d="M63.1647 43.2203C61.9418 43.2203 61.0536 43.6723 60.5087 44.5633C59.9466 43.668 59.1828 43.2203 58.2174 43.2203C57.1061 43.2203 56.2866 43.569 55.7545 44.262V43.5044H53.6563V52.0658H55.7545V47.8604C55.7545 45.8374 56.2994 44.8258 57.3979 44.8258C58.2775 44.8258 58.7151 45.7943 58.7151 47.7313V52.0658H60.8133V47.8604C60.8133 45.8374 61.3111 44.8258 62.3022 44.8258C63.2934 44.8258 63.7954 45.7341 63.7954 47.5548V52.0658H65.8679V46.7327C65.8679 44.3911 64.9668 43.2203 63.1647 43.2203Z" fill="white"/>
<path d="M70.0171 43.5001H67.9189V52.0615H70.0171V43.5001Z" fill="white"/>
<path d="M68.9573 38.6663C68.6269 38.6663 68.3394 38.7911 68.0948 39.0364C67.8503 39.2818 67.7258 39.5702 67.7258 39.9016C67.7258 40.2331 67.846 40.5258 68.0948 40.7711C68.3394 41.0165 68.6269 41.1413 68.9573 41.1413C69.2877 41.1413 69.5752 41.0165 69.8197 40.7711C70.0643 40.5258 70.1887 40.2374 70.1887 39.9016C70.1887 39.5659 70.0643 39.2818 69.8197 39.0364C69.5752 38.7911 69.2877 38.6663 68.9573 38.6663Z" fill="white"/>
<path d="M76.7365 43.2203C75.5823 43.2203 74.7112 43.5733 74.1234 44.2835V43.5001H72.0252V52.0615H74.1234V47.727C74.1234 45.79 74.7284 44.8215 75.9384 44.8215C77.0497 44.8215 77.6032 45.7255 77.6032 47.529V52.0572H79.6757V46.8317C79.6757 44.4169 78.6974 43.2117 76.7365 43.2117V43.2203Z" fill="white"/>
<path d="M85.6613 43.6766H83.9965V40.5989H81.8983V43.6766H80.8857V45.3854H81.8983V52.0615H83.9965V45.3854H85.6613V43.6766Z" fill="white"/>
<path d="M90.0894 43.2203C88.7507 43.2203 87.6694 43.6464 86.8456 44.4987C86.026 45.351 85.6141 46.4443 85.6141 47.783C85.6141 49.1216 86.0303 50.2149 86.867 51.0672C87.7037 51.9195 88.785 52.3456 90.1194 52.3456C91.4539 52.3456 92.5266 51.9195 93.3504 51.0672C94.1699 50.2149 94.5818 49.1173 94.5818 47.77C94.5818 46.4228 94.1656 45.3338 93.3375 44.4858C92.5094 43.6421 91.4238 43.216 90.0851 43.216L90.0894 43.2203ZM91.8272 49.7156C91.4024 50.258 90.836 50.5291 90.1323 50.5291C89.4286 50.5291 88.8494 50.2752 88.4031 49.7673C87.9569 49.2637 87.7338 48.6094 87.7338 47.8045C87.7338 46.9996 87.9569 46.341 88.4031 45.8202C88.8494 45.2993 89.42 45.0411 90.1194 45.0411C90.8188 45.0411 91.3809 45.3122 91.8143 45.8546C92.2477 46.3969 92.4622 47.0383 92.4622 47.783C92.4622 48.5276 92.2477 49.1733 91.8229 49.7113L91.8272 49.7156Z" fill="white"/>
<path d="M100.443 43.2203C99.2888 43.2203 98.4178 43.5733 97.83 44.2835V43.5001H95.7318V52.0615H97.83V47.727C97.83 45.79 98.435 44.8215 99.645 44.8215C100.756 44.8215 101.31 45.7255 101.31 47.529V52.0572H103.382V46.8317C103.382 44.4169 102.404 43.2117 100.443 43.2117V43.2203Z" fill="white"/>
<path d="M113.642 40.6161C112.402 41.9892 111.784 43.6421 111.784 45.5791C111.784 47.5161 112.402 49.0484 113.642 50.3914C114.882 51.7344 116.405 52.4058 118.224 52.4058C119.129 52.4058 120.116 52.1433 121.185 51.6225V48.915C120.391 49.8404 119.426 50.3053 118.288 50.3053C117.091 50.3053 116.096 49.8146 115.298 48.8418C114.5 47.8647 114.096 46.7671 114.096 45.5361C114.096 44.305 114.5 43.1342 115.306 42.1442C116.113 41.1542 117.113 40.6592 118.31 40.6592C119.507 40.6592 120.421 41.1198 121.185 42.0452V39.3162C120.206 38.8083 119.232 38.5587 118.267 38.5587C116.422 38.5587 114.882 39.2431 113.642 40.6161Z" fill="white"/>
<path d="M125.094 38.9073H122.871V52.0615H129.05V50.1762H125.094V38.9073Z" fill="white"/>
<path d="M137.348 46.2764C137.348 49.1087 136.46 50.5248 134.692 50.5248C132.924 50.5248 132.036 49.1087 132.036 46.2764V38.9073H129.809V46.7757C129.809 50.5335 131.431 52.4102 134.684 52.4102C137.936 52.4102 139.558 50.5335 139.558 46.7757V38.9073H137.352V46.2764H137.348Z" fill="white"/>
<path d="M148.963 46.143C148.569 45.5232 148.024 45.153 147.333 45.0368C148.097 44.503 148.478 43.6464 148.478 42.48C148.478 40.0953 147.165 38.903 144.544 38.903H141.347V52.0615H145.368C146.621 52.0615 147.633 51.7473 148.406 51.1189C149.178 50.4904 149.56 49.565 149.56 48.3339C149.56 47.4946 149.362 46.7671 148.963 46.143ZM143.57 40.6162H144.587C145.81 40.6162 146.423 41.2963 146.423 42.6521C146.423 43.9219 145.805 44.559 144.565 44.559H143.57V40.6162ZM144.801 50.2838H143.57V46.1645H144.673C146.457 46.1645 147.354 46.8145 147.354 48.1144C147.354 49.5607 146.505 50.2795 144.806 50.2795L144.801 50.2838Z" fill="white"/>
<path d="M173.704 40.2632C173.429 40.1728 145.574 31.3445 88.6648 31.3445C31.7561 31.3445 0.617873 40.1685 0.308937 40.2589C0.124433 40.3105 0 40.4827 0 40.6721V55.5696C0 55.703 0.0643618 55.8321 0.171632 55.9139C0.248866 55.9699 0.338972 56 0.429079 56C0.467696 56 0.510604 55.9957 0.549221 55.9828C0.60071 55.9656 4.4238 54.8723 11.7439 53.4647V55.5696H12.602V53.3012C15.3696 52.7803 18.6006 52.2208 22.2821 51.6612L22.1533 50.8089C18.5276 51.3599 15.3439 51.9108 12.5978 52.4274V38.4037C15.5627 37.8441 19.0554 37.2415 23.0716 36.6432C36.5575 34.6288 58.7881 32.2269 88.2357 32.2011V41.9979L89.0939 41.5674V32.2011C124.278 32.2269 148.255 35.636 161.398 38.2186V52.2208C158.334 51.6181 154.7 50.9725 150.486 50.3397L149.929 51.192C154.202 51.8334 158.313 52.4876 161.398 53.0946V55.561H162.256V53.2667C169.666 54.7647 173.386 55.957 173.438 55.9742C173.567 56.0172 173.713 55.9957 173.824 55.9139C173.936 55.8321 174 55.703 174 55.5653V40.6678C174 40.4827 173.88 40.3148 173.704 40.2589V40.2632ZM11.7439 52.5909C5.85263 53.7187 2.17543 54.6527 0.858157 55.0057V40.9992C1.90511 40.7152 5.58661 39.751 11.7439 38.5673V52.5909ZM173.142 54.9885C171.829 54.6011 168.199 53.5896 162.256 52.3929V38.3908C168.508 39.6477 172.125 40.6807 173.142 40.9906V54.9885Z" fill="white"/>
<path d="M88.2357 56H89.0939V53.7316L88.2357 53.3011V56Z" fill="white"/>
<path d="M104.717 47.3396C106.823 47.4042 108.947 47.4816 111.037 47.572L111.076 46.7112C108.986 46.6208 106.853 46.5433 104.747 46.4787L104.721 47.3396H104.717Z" fill="white"/>
</g>
<defs>
<clipPath id="clip0_6_172">
<rect width="174" height="56" fill="white"/>
</clipPath>
</defs>
</svg>
